# xmcd
#
# Track frame offsets:
#	150
#	13727
#	29117
#	46210
#	60413
#	76230
#	94503
#	112406
#	127983
#	153751
#	177816
#
# Disc length: 2576 seconds
#
# Revision: 0
# Processed by: cddbd v1.5.2PL0 Copyright (c) Steve Scherf et al.
# Submitted via: EasyCDDAExtractor 2010.4.0.0
#
DISCID=830a0e0b
DTITLE=Vince Gill - High Lonesome Sound
DYEAR=1900
DGENRE=Country
TTITLE0=One Dance With You
TTITLE1=High Lonesome Sound
TTITLE2=Pretty Little Adriana
TTITLE3=A Little More Love
TTITLE4=Down To New Orleans
TTITLE5=Tell Me, Lover
TTITLE6=Given More Time
TTITLE7=You And You Alone
TTITLE8=Worlds Apart
TTITLE9=Jenny Dreamed Of Trains
TTITLE10=High Lonesome Sound
EXTD=
EXTT0=
EXTT1=
EXTT2=
EXTT3=
EXTT4=
EXTT5=
EXTT6=
EXTT7=
EXTT8=
EXTT9=
EXTT10=
PLAYORDER=
